<svg width="70" height="30" viewBox="0 0 70 30" fill="none" xmlns="http://www.w3.org/2000/svg">
<rect width="70" height="30" rx="15" fill="#B9597E"/>
<path d="M25 14.5C24.7239 14.5 24.5 14.7239 24.5 15C24.5 15.2761 24.7239 15.5 25 15.5L25 14.5ZM46.3536 15.3536C46.5488 15.1583 46.5488 14.8417 46.3536 14.6464L43.1716 11.4645C42.9763 11.2692 42.6597 11.2692 42.4645 11.4645C42.2692 11.6597 42.2692 11.9763 42.4645 12.1716L45.2929 15L42.4645 17.8284C42.2692 18.0237 42.2692 18.3403 42.4645 18.5355C42.6597 18.7308 42.9763 18.7308 43.1716 18.5355L46.3536 15.3536ZM25 15.5L46 15.5L46 14.5L25 14.5L25 15.5Z" fill="white"/>
</svg>
