<svg width="99" height="43" viewBox="0 0 99 43" fill="none" xmlns="http://www.w3.org/2000/svg">
<g clip-path="url(#clip0_4_36)">
<path d="M10.5921 38.1771L8.81948 37.327L6.69312 38.0749C6.33088 38.2023 6.14065 38.599 6.26806 38.9612C6.33178 39.1424 6.46275 39.2805 6.62314 39.3574C6.78353 39.4343 6.97318 39.45 7.15436 39.3863L8.35345 38.9645L7.87675 39.9585C7.71074 40.3047 7.85649 40.7197 8.20293 40.8859C8.54938 41.052 8.96431 40.9059 9.13032 40.5597L9.60702 39.5657L10.0288 40.7648C10.0925 40.946 10.2235 41.0841 10.3838 41.161C10.5442 41.2379 10.7339 41.2536 10.9151 41.1899C11.2773 41.0625 11.4675 40.6658 11.3401 40.3036L10.5921 38.1771Z" fill="#B9597E"/>
<path d="M22.9947 13.2362C25.5944 7.6182 26.5874 4.0505 26.948 2.42616C27.0121 2.13725 26.6446 1.96126 26.4594 2.19214C25.4157 3.49364 23.247 6.51328 20.4836 12.0841L20.8276 14.5618L22.9947 13.2362Z" fill="#A0D755"/>
<path d="M26.9481 2.42613C26.9801 2.28166 26.9042 2.16533 26.7973 2.11417L20.8276 14.5618L22.9948 13.2362C25.5945 7.61817 26.5875 4.05048 26.9481 2.42613Z" fill="#B4E66E"/>
<path d="M21.4604 16.457L20.0159 17.0635L18.3442 15.0251C18.8416 10.4903 17.9389 5.01983 17.3715 2.22066C17.3079 1.90673 17.7455 1.75325 17.8922 2.03801C21.2843 8.62262 21.4592 15.2105 21.4604 16.457Z" fill="#87BE4B"/>
<path d="M19.034 15.2933L19.4653 16.7994L22.1014 16.827C25.3263 13.6002 30.1574 10.8797 32.6954 9.56978C32.98 9.42284 32.8257 8.9855 32.5118 9.04939C25.2537 10.5263 20.0068 14.5139 19.034 15.2933Z" fill="#A0D755"/>
<path d="M9.40517 38.3788C14.5975 40.869 20.6907 38.9591 23.0149 34.113C24.538 30.9371 23.6351 27.5425 22.0952 24.4501C21.0832 22.4177 20.4034 20.6703 21.093 19.396C21.4572 18.7228 22.0689 18.2408 22.759 18.5718C22.759 18.5718 23.2035 17.5137 22.1153 16.649C21.1209 15.859 19.9257 16.4421 19.9257 16.4421C19.9257 16.4421 19.6323 15.145 18.3938 14.8642C17.0382 14.5569 16.4913 15.5659 16.4913 15.5659C17.1814 15.8969 17.1885 16.6756 16.8916 17.3811C16.3294 18.7165 14.5413 19.2803 12.3229 19.7634C8.94741 20.4985 5.73504 21.9195 4.21193 25.0953C1.88781 29.9414 4.21286 35.8887 9.40517 38.3788Z" fill="#DA96B0"/>
<path d="M20.4994 32.928C21.8408 30.1313 22.2759 27.1636 21.8262 23.8938C20.9723 22.0998 20.4675 20.552 21.093 19.396C21.1051 19.3738 21.1216 19.3562 21.1343 19.3345L21.1314 19.3331C21.4992 18.6944 22.0914 18.2517 22.7591 18.5719C22.7591 18.5719 23.2036 17.5138 22.1153 16.6491C21.5353 16.1883 20.8869 16.1947 20.4473 16.28C20.1606 16.3357 19.862 16.1925 19.7259 15.934C19.5173 15.5378 19.1164 15.0282 18.3939 14.8644C17.0383 14.557 16.4914 15.566 16.4914 15.566C17.1591 15.8863 17.1846 16.6252 16.9168 17.3118L16.9139 17.3104C16.9049 17.3339 16.9016 17.3578 16.8918 17.3812C16.4089 18.5284 15.0124 19.1034 13.2241 19.5496C12.9318 19.6232 12.6357 19.6955 12.3231 19.7635C8.94757 20.4986 5.7352 21.9195 4.21209 25.0954C1.88793 29.9416 4.21302 35.8887 9.40533 38.3789C11.0652 39.175 12.8117 39.5226 14.502 39.4643C14.5248 39.4634 14.7649 39.4546 14.8572 39.4487C17.0428 38.1454 19.0934 35.8599 20.4994 32.928ZM20.2418 22.8567C20.9643 26.3938 20.6482 29.403 19.246 32.3269C18.2339 34.4372 16.8693 36.1719 15.3972 37.3817C14.9582 37.7425 14.3406 37.8064 13.843 37.5321C13.6184 37.4082 13.4001 37.2773 13.1858 37.1421C14.5563 35.2995 15.8176 33.0456 16.6117 31.3898C18.0684 28.3524 19.0009 25.3752 19.4622 22.2877C19.581 21.4887 19.7102 20.7796 19.8782 20.1129C19.8954 21.0268 20.0574 21.9537 20.2418 22.8567ZM14.7257 20.2113C15.545 19.7899 16.3689 19.3361 17.0923 18.7779C16.6775 19.3263 16.2057 19.8707 15.6575 20.4631C13.5398 22.7533 11.8019 25.3442 10.344 28.3841C9.87477 29.3625 9.34461 30.6027 8.86747 31.912C8.10547 29.8966 8.00529 27.6842 8.68923 25.6017C10.0755 23.3411 12.0199 21.6026 14.7257 20.2113ZM10.0918 34.2148C9.8457 33.8665 9.79389 33.4142 9.93236 33.0109C10.3408 31.8212 10.8808 30.4796 11.5975 28.9852C12.9945 26.0723 14.6567 23.5938 16.6786 21.4075C17.5518 20.4628 18.2601 19.6248 18.8419 18.7022C18.4864 19.7321 18.2768 20.8098 18.0865 22.0824C17.6461 25.0305 16.7539 27.8782 15.3581 30.7887C14.2042 33.1946 13.0677 35.0201 12.079 36.3406C11.3109 35.711 10.6433 34.9954 10.0918 34.2148Z" fill="#B9597E"/>
</g>
<path d="M36.56 16.432C37.088 16.432 37.304 16.624 37.424 16.792C37.592 17.032 37.664 17.344 37.664 17.536V18.664H39.92V17.536C39.92 16.984 39.752 16.192 39.248 15.496C38.696 14.728 37.808 14.176 36.56 14.176C35.288 14.176 34.4 14.728 33.848 15.496C33.344 16.192 33.2 16.984 33.2 17.536V27.616C33.2 28.168 33.344 28.984 33.848 29.68C34.4 30.424 35.288 30.976 36.56 30.976C37.808 30.976 38.696 30.424 39.248 29.68C39.752 28.984 39.92 28.168 39.92 27.616V24.256H37.664V27.616C37.664 27.832 37.592 28.144 37.424 28.36C37.304 28.552 37.088 28.744 36.56 28.744C36.008 28.744 35.792 28.552 35.672 28.36C35.504 28.144 35.432 27.808 35.432 27.616V17.536C35.432 17.344 35.504 17.032 35.672 16.792C35.792 16.624 36.008 16.432 36.56 16.432ZM45.6532 16.432C46.2052 16.432 46.4212 16.624 46.5412 16.792C46.7092 17.032 46.7812 17.344 46.7812 17.536V27.616C46.7812 27.832 46.7092 28.144 46.5412 28.36C46.4212 28.552 46.2052 28.744 45.6532 28.744C45.1252 28.744 44.9092 28.552 44.7892 28.36C44.6212 28.144 44.5492 27.808 44.5492 27.616V17.536C44.5492 17.344 44.6212 17.032 44.7892 16.792C44.9092 16.624 45.1252 16.432 45.6532 16.432ZM42.3172 17.536V27.616C42.3172 28.168 42.4612 28.984 42.9652 29.68C43.5172 30.424 44.4052 30.976 45.6772 30.976C46.9252 30.976 47.8132 30.424 48.3652 29.68C48.8692 28.984 49.0372 28.168 49.0372 27.616V17.536C49.0372 16.984 48.8692 16.192 48.3652 15.496C47.8132 14.728 46.9252 14.176 45.6772 14.176C44.4052 14.176 43.5172 14.728 42.9652 15.496C42.4612 16.192 42.2932 16.984 42.3172 17.536ZM55.8984 16.672V31.048H58.1544V14.248H57.0264C54.7464 14.248 53.3064 15.472 52.4664 16.888C51.6744 18.28 51.4344 19.888 51.4344 20.968V31.048H53.6664V20.968C53.6664 20.152 53.8584 18.976 54.4104 18.016C54.7464 17.416 55.2264 16.912 55.8984 16.672ZM61.2236 16.816C60.5276 18.184 60.5276 19.792 60.5516 20.872C60.5516 20.896 60.5516 31 60.5516 31.048H67.2716V25.432H65.0156V28.792H62.7836V22.072H65.0156V19.84H62.8076C62.8316 19.072 62.9276 18.376 63.2156 17.824C63.4076 17.44 63.6716 17.128 64.1036 16.888C64.3196 16.768 64.6316 16.648 65.0156 16.576V18.712H67.2716V14.248H66.1436C64.8716 14.248 63.8396 14.464 62.9996 14.944C62.1596 15.4 61.5836 16.072 61.2236 16.816ZM69.6688 30.976H71.9008V22.024H74.1328V30.976H76.3888V14.176H74.1328V19.792H71.9008V14.176H69.6688V30.976ZM78.7859 30.976H85.5059V29.872C85.5059 28.096 85.1939 26.2 84.3779 24.712C83.6579 23.416 82.5539 22.456 81.0179 22.144V14.176H78.7859V30.976ZM81.0179 24.472C81.6179 24.712 82.0739 25.168 82.4099 25.792C82.8419 26.56 83.1059 27.592 83.2019 28.744H81.0179V24.472ZM87.9031 14.176V15.304C87.9031 17.08 88.1911 18.976 89.0071 20.464C89.3431 21.064 89.7511 21.592 90.2551 22C89.7751 22.408 89.3671 22.864 89.0311 23.392C88.2151 24.736 87.9031 26.344 87.9031 27.616V30.976H90.1351V27.616C90.1351 26.656 90.3751 25.48 90.9511 24.568C91.2871 24.016 91.7431 23.584 92.3671 23.344V30.976H94.6231V14.176H87.9031ZM92.3671 20.704C91.7671 20.464 91.3111 20.008 90.9751 19.384C90.5431 18.592 90.2791 17.56 90.1831 16.432H92.3671V20.704Z" fill="#8A7C63"/>
<defs>
<clipPath id="clip0_4_36">
<rect width="33" height="43" fill="white"/>
</clipPath>
</defs>
</svg>
